{"title":"Between the Canals 2012 DVDRip XViD juggs","uid":8243661,"size":740578743,"categoryP":"video","categoryS":"movies","magnet":"?xt=urn:btih:d6f00076a663331ccdec945a7b093edcac195622&amp;dn=Between+the+Canals+2012+DVDRip+XViD+juggs&amp;tr=udp%3A%2F%2Ftracker.openbittorrent.com%3A80&amp;tr=udp%3A%2F%2Fopen.demonii.com%3A1337&amp;tr=udp%3A%2F%2Ftracker.coppersurfer.tk%3A6969&amp;tr=udp%3A%2F%2Fexodus.desync.com%3A6969","seeders":1,"leechers":1,"uploader":"juggs99","files":3,"time":1363013465,"description":"Source : L-S\n\nFormat : AVI\nFormat/Info : Audio Video Interleave\nFile size : 699 MiB\nDuration : 1h 12mn\nOverall bit rate : 1 345 Kbps\nWriting library : VirtualDub build 32842/release\n\nVideo\nID : 0\nFormat : MPEG-4 Visual\nFormat profile : Advanced Simple@L5\nFormat settings, BVOP : 4\nFormat settings, QPel : No\nFormat settings, GMC : No warppoints\nFormat settings, Matrix : Default (H.263)\nMuxing mode : Packed bitstream\nCodec ID : XVID\nCodec ID/Hint : XviD\nDuration : 1h 12mn\nBit rate : 1 208 Kbps\nWidth : 640 pixels\nHeight : 272 pixels\nDisplay aspect ratio : 2.35:1\nFrame rate : 25.000 fps\nColor space : YUV\nChroma subsampling : 4:2:0\nBit depth : 8 bits\nScan type : Progressive\nCompression mode : Lossy\nBits/(Pixel*Frame) : 0.278\nStream size : 627 MiB (90%)\nWriting library : XviD 64\n\nAudio\nID : 1\nFormat : MPEG Audio\nFormat version : Version 1\nFormat profile : Layer 3\nCodec ID : 55\nCodec ID/Hint : MP3\nDuration : 1h 12mn\nBit rate mode : Constant\nBit rate : 128 Kbps\nChannel(s) : 2 channels\nSampling rate : 44.1 KHz\nCompression mode : Lossy\nStream size : 66.5 MiB (10%)\nAlignment : Split accross interleaves\nInterleave, duration : 40 ms (1.00 video frame)\nInterleave, preload duration : 500 ms\nWriting library : LAME3.99r\nEncoding settings : -m s -V 4 -q 3 -lowpass 17 -b 128\n\nPlot\nFollows three small time criminals from Dublin's North Inner City as they each aspire to be somebody in a fast changing society.\n\n &lt;a href=&quot;\nhttp://www.shotpix.com/images/12264824680978421270.png&quot; rel=&quot;nofollow&quot; target=&quot;_NEW&quot;&gt;\nhttp://www.shotpix.com/images/12264824680978421270.png&lt;/a&gt; &lt;a href=&quot;\nhttp://www.shotpix.com/images/90675681483635311188.png&quot; rel=&quot;nofollow&quot; target=&quot;_NEW&quot;&gt;\nhttp://www.shotpix.com/images/90675681483635311188.png&lt;/a&gt; &lt;a href=&quot;\nhttp://www.shotpix.com/images/44283279240596937256.png&quot; rel=&quot;nofollow&quot; target=&quot;_NEW&quot;&gt;\nhttp://www.shotpix.com/images/44283279240596937256.png&lt;/a&gt;","torrent":{"xt":"urn:btih:d6f00076a663331ccdec945a7b093edcac195622","amp;dn":"Between+the+Canals+2012+DVDRip+XViD+juggs","amp;tr":["udp%3A%2F%2Ftracker.openbittorrent.com%3A80","udp%3A%2F%2Fopen.demonii.com%3A1337","udp%3A%2F%2Ftracker.coppersurfer.tk%3A6969","udp%3A%2F%2Fexodus.desync.com%3A6969"],"infoHash":"d6f00076a663331ccdec945a7b093edcac195622","infoHashBuffer":{"type":"Buffer","data":[214,240,0,118,166,99,51,28,205,236,148,90,123,9,62,220,172,25,86,34]},"announce":[],"urlList":[]}}